<svg width="28" height="22" viewBox="0 0 28 22" fill="none" xmlns="http://www.w3.org/2000/svg">
<path fill-rule="evenodd" clip-rule="evenodd" d="M0.875 1.625C0.529822 1.625 0.25 1.34518 0.25 1C0.25 0.654822 0.529822 0.375 0.875 0.375L27.125 0.375002C27.4702 0.375002 27.75 0.654824 27.75 1C27.75 1.34518 27.4702 1.625 27.125 1.625L0.875 1.625ZM0.25 11C0.25 11.3452 0.529822 11.625 0.875 11.625L27.125 11.625C27.4702 11.625 27.75 11.3452 27.75 11C27.75 10.6548 27.4702 10.375 27.125 10.375L0.875 10.375C0.529822 10.375 0.25 10.6548 0.25 11ZM0.25 21C0.25 21.3452 0.529822 21.625 0.875 21.625L27.125 21.625C27.4702 21.625 27.75 21.3452 27.75 21C27.75 20.6548 27.4702 20.375 27.125 20.375L0.875 20.375C0.529822 20.375 0.25 20.6548 0.25 21Z" fill="white"/>
</svg>